<?xml version="1.0" encoding="UTF-8"?>
<svg width="300px" height="150px" viewBox="0 0 300 150" version="1.1" xmlns="http://www.w3.org/2000/svg" xmlns:xlink="http://www.w3.org/1999/xlink">
    <title>puma-logo</title>
    <g id="Page-1" stroke="none" stroke-width="1" fill="none" fill-rule="evenodd">
        <path d="M73.1430665,76.6893898 L73.1367526,137.05002 C73.1367526,138.896828 74.6836517,140.39006 76.5052042,140.434257 C78.3362275,140.39006 79.8831265,138.896828 79.8831265,137.05002 L79.8831265,137.05002 L79.8989112,76.6893898 L99.7749849,76.6893898 L99.7749849,143.221832 C99.7749849,146.486104 97.1641982,149.144245 93.8999256,149.144245 L93.8999256,149.144245 L59.1325812,149.144245 C55.8904072,149.144245 53.2480511,146.486104 53.2480511,143.221832 L53.2480511,143.221832 L53.2480511,76.6893898 L73.1430665,76.6893898 Z M173.217961,76.6893898 C176.778986,76.6893898 179.689682,79.5874577 179.689682,83.1863656 L179.689682,83.1863656 L179.689682,149.144245 L159.775725,149.144245 L159.775725,88.6415523 C159.763097,86.7884304 158.241454,85.3204548 156.404116,85.3204548 C154.547838,85.3204548 153.057763,86.7537041 153.032508,88.5910413 L153.032508,88.5910413 L153.032508,149.144245 L133.203788,149.144245 L133.203788,88.5910413 C133.162748,86.7537041 131.669517,85.3204548 129.813238,85.3204548 C127.960116,85.3204548 126.460571,86.7884304 126.447944,88.6415523 L126.447944,88.6415523 L126.447944,149.144245 L106.533987,149.144245 L106.533987,83.1863656 C106.533987,79.5874577 109.435211,76.6893898 113.00255,76.6893898 L113.00255,76.6893898 Z M40.1057234,76.6893898 C43.6951605,76.6893898 46.4985203,79.6063993 46.4985203,83.214778 L46.4985203,124.406489 C46.4985203,128.027495 43.5846677,130.938191 39.979446,130.938191 L19.8823866,130.938191 L19.8823866,149.144245 L-1.04433979e-06,149.144245 L-1.0443398e-06,76.6893898 L40.1057234,76.6893898 Z M226.475484,76.6893898 C230.049137,76.6893898 232.947205,79.5874577 232.947205,83.1863656 L232.947205,149.144245 L213.067974,149.144245 L213.067974,130.953976 L206.308973,130.953976 L206.308973,149.144245 L186.436056,149.144245 L186.436056,83.1863656 C186.436056,79.5874577 189.337281,76.6893898 192.904619,76.6893898 L226.475484,76.6893898 Z M209.680581,85.3551812 C207.843244,85.3551812 206.327914,86.8294706 206.308973,88.6699647 L206.308973,121.978804 L213.067974,121.978804 L213.067974,88.6162968 C213.02062,86.7726458 211.53686,85.3551812 209.680581,85.3551812 Z M23.2603089,85.3204548 L19.8823866,85.3204548 L19.8823866,121.966177 L23.2603089,121.966177 C25.0155658,121.966177 26.6445451,120.570811 26.6287604,118.562999 L26.6287604,88.7678298 C26.6445451,86.7537041 25.002938,85.3204548 23.2603089,85.3204548 Z M289.702614,2.16358391 C291.738838,0.954477139 296.357436,-1.74786072 299.028205,1.65847403 C301.178079,4.41763675 299.40388,8.97309648 297.165612,11.1545398 C295.748148,12.5309642 293.184715,13.9263302 288.307248,16.2245802 C286.653013,17.0138144 283.953832,19.02794 282.902572,19.8519005 C277.677842,23.8359547 273.889518,32.8805785 269.675007,42.7838891 C269.675007,42.7838891 267.87871,47.6487286 259.954799,52.8860867 C258.625728,53.7479304 259.828521,54.4866536 261.283869,56.3492463 C263.146462,58.8179708 266.884275,68.8696574 266.401264,84.165016 C266.32234,86.8831385 267.420954,88.0606759 268.658473,90.2831594 C270.802033,94.1188376 275.032329,93.2601508 274.92815,98.2954649 C274.782931,105.048153 279.770891,106.484559 278.173481,109.606769 C277.005414,111.879764 277.409502,114.083306 277.415816,116.302632 C277.415816,117.423345 278.021948,119.055481 275.701599,118.938674 C266.20869,118.360955 266.846392,105.629029 267.020023,101.247201 C267.171556,100.669481 266.735899,99.6340061 266.663289,99.5803381 C266.189749,99.239389 260.276806,94.6428891 259.885346,94.2514289 C252.703315,86.9494342 247.971067,80.3861627 245.325554,73.6397889 C243.573454,69.1443109 241.774,64.7088148 238.69283,61.8612579 C235.235984,58.710635 231.008846,56.9364365 227.293131,56.914338 C200.885355,56.7817466 195.452267,45.1957888 188.270236,39.4217514 C188.052407,39.2639046 187.392607,38.8913861 187.013775,38.8598167 C186.612844,38.8913861 186.29715,39.3649266 186.038282,39.5890691 C183.263334,42.4934509 180.469445,43.4436889 176.71269,43.4436889 C167.794344,43.4436889 158.194099,35.6239565 156.498824,37.3665856 C155.210794,38.7240684 156.331507,41.5242713 153.960647,41.988341 C150.529057,42.6765532 146.974346,39.2891601 147.258471,36.4195046 C147.773051,31.2768546 153.032508,29.7741527 157.644793,29.2501012 C161.461529,28.8428564 164.574269,29.8878025 165.290893,29.9698828 C167.418669,30.2666349 167.794344,27.6937314 167.443924,26.0300257 C167.04615,24.2274149 165.36666,23.8517394 163.61456,23.3308448 C161.477314,22.6931436 159.103297,24.4641851 157.505887,23.9243489 C155.636981,23.2519214 155.488605,22.2985265 153.944863,20.9189451 C151.965463,19.1984146 149.686155,18.7375019 149.695626,16.3161314 C149.695626,14.0747063 152.420062,13.8916039 153.196669,11.8332812 C153.591286,10.8072767 153.477636,9.73391824 153.828056,9.10884476 C154.746725,7.42935441 156.479883,7.51143477 157.865778,6.15395197 C159.763097,4.26926073 160.707021,0.654568148 161.688828,0.509349057 C162.673793,0.348345283 164.3154,3.97566561 165.290893,3.65365806 C166.329526,3.29692421 167.778559,0.24416637 169.192867,0.427268702 C169.795842,0.503035184 172.198271,5.31420679 172.198271,5.31420679 C191.550293,6.27075863 215.429363,29.7173279 218.504219,32.0913443 C219.987979,33.2373123 226.251342,39.7185035 237.701552,44.7380329 C242.408544,46.8058265 247.140792,47.6929257 251.522621,47.3677612 C257.375581,46.9478886 263.919911,41.8083956 267.945006,34.8126238 C272.989791,26.0552812 275.136508,10.8072767 289.702614,2.16358391 Z" id="puma-logo" fill="#FFFFFF" fill-rule="nonzero"></path>
    </g>
</svg>