<svg width="655" height="361" viewBox="0 0 655 361" fill="none" xmlns="http://www.w3.org/2000/svg">
<g clip-path="url(#clip0_314_649)">
<path fill-rule="evenodd" clip-rule="evenodd" d="M119 333L146 361H98L71 333H119ZM153 310L166 324H121L108 310H153ZM92 296L105 310H60L47 296H92ZM137 273L150 287H105L92 273H137ZM76 259L89 273H44L31 259H76ZM122 236L135 250H90L77 236H122ZM61 222L74 236H29L16 222H61ZM106 199L119 213H74L61 199H106ZM45 185L58 199H13L0 185H45ZM58 162L45 176H0L13 162H58ZM119 148L106 162H61L74 148H119ZM74 125L61 139H16L29 125H74ZM135 111L122 125H77L90 111H135ZM89 88L76 102H31L44 88H89ZM150 74L137 88H92L105 74H150ZM105 51L92 65H47L60 51H105ZM166 37L153 51H108L121 37H166ZM146 0L119 28H71L98 0H146Z" fill="#007FFF"/>
<path fill-rule="evenodd" clip-rule="evenodd" d="M584 333L557 361H509L536 333H584ZM547 310L534 324H489L502 310H547ZM608 296L595 310H550L563 296H608ZM563 273L550 287H505L518 273H563ZM624 259L611 273H566L579 259H624ZM578 236L565 250H520L533 236H578ZM639 222L626 236H581L594 222H639ZM594 199L581 213H536L549 199H594ZM655 185L642 199H597L610 185H655ZM642 162L655 176H610L597 162H642ZM581 148L594 162H549L536 148H581ZM626 125L639 139H594L581 125H626ZM565 111L578 125H533L520 111H565ZM611 88L624 102H579L566 88H611ZM550 74L563 88H518L505 74H550ZM595 51L608 65H563L550 51H595ZM534 37L547 51H502L489 37H534ZM557 0L584 28H536L509 0H557Z" fill="#FF2000"/>
<path fill-rule="evenodd" clip-rule="evenodd" d="M536 333L509 361H443L430 347H383L370 333H536ZM285 333L272 347H225L212 361H146L119 333H285ZM563 296L550 310H502L489 324H370L396 296H563ZM259 296L285 324H166L153 310H105L92 296H259ZM579 259L566 273H518L505 287H386L412 259H579ZM243 259L269 287H150L137 273H89L76 259H243ZM594 222L581 236H533L520 250H401L427 222H594ZM228 222L254 250H135L122 236H74L61 222H228ZM610 185L597 199H549L536 213H417L443 185H610ZM212 185L238 213H119L106 199H58L45 185H212ZM536 148L549 162H597L610 176H45L58 162H106L119 148H536ZM520 111L533 125H581L594 139H427L401 111H520ZM254 111L228 139H61L74 125H122L135 111H254ZM505 74L518 88H566L579 102H412L386 74H505ZM269 74L243 102H76L89 88H137L150 74H269ZM489 37L502 51H550L563 65H396L370 37H489ZM285 37L259 65H92L105 51H153L166 37H285ZM509 0L536 28H370L383 14H430L443 0H509ZM212 0L225 14H272L285 28H119L146 0H212Z" fill="white"/>
</g>
<defs>
<clipPath id="clip0_314_649">
<rect width="655" height="361" fill="white"/>
</clipPath>
</defs>
</svg>
